# Blender 3.2.0
# www.blender.org
mtllib debug-camera.mtl
o Cube
v 0.000000 0.100000 0.236642
v -0.100000 -0.100000 0.101710
v 0.000000 0.114532 0.236642
v 0.100000 -0.100000 0.101710
v -0.085848 0.100000 0.380482
v -0.100000 -0.100000 0.401710
v 0.085848 0.100000 0.380482
v 0.100000 -0.100000 0.401710
v 0.100000 0.100000 0.101710
v 0.100000 0.100000 0.401710
v -0.100000 0.100000 0.101710
v -0.100000 0.100000 0.401710
v -0.085848 0.114532 0.380482
v 0.085848 0.114532 0.380482
vn 0.8587 -0.0000 -0.5125
vn 1.0000 -0.0000 -0.0000
vn -0.0000 -0.0000 1.0000
vn -0.0000 -1.0000 -0.0000
vn -0.0000 -0.0000 -1.0000
vn -1.0000 -0.0000 -0.0000
vn -0.0000 1.0000 -0.0000
vn -0.8587 -0.0000 -0.5125
vt 0.642690 0.732310
vt 0.642690 0.517690
vt 0.375000 0.500000
vt 0.642690 0.732310
vt 0.642690 0.517690
vt 0.375000 0.750000
vt 0.857310 0.517690
vt 0.125000 0.500000
vt 0.375000 0.250000
vt 0.857310 0.732310
vt 0.375000 1.000000
vt 0.375000 0.000000
vt 0.125000 0.750000
vt 0.625000 0.750000
vt 0.625000 1.000000
vt 0.625000 0.000000
vt 0.875000 0.750000
vt 0.625000 0.500000
vt 0.625000 0.250000
vt 0.875000 0.500000
vt 0.857310 0.517690
vt 0.857310 0.732310
s 0
usemtl Material
f 7/10/1 1/1/1 3/4/1 14/22/1
f 4/6/2 9/14/2 10/15/2 8/11/2
f 8/12/3 10/16/3 12/19/3 6/9/3
f 6/8/4 2/3/4 4/6/4 8/13/4
f 2/3/5 11/18/5 9/14/5 4/6/5
f 6/9/6 12/19/6 11/18/6 2/3/6
f 1/1/7 7/10/7 10/17/7 9/14/7
f 1/1/7 9/14/7 11/18/7
f 7/10/7 5/7/7 12/20/7 10/17/7
f 5/7/7 1/2/7 11/18/7 12/20/7
f 3/5/7 13/21/7 14/22/7
f 1/2/8 5/7/8 13/21/8 3/5/8
f 5/7/3 7/10/3 14/22/3 13/21/3
o Cone
v -0.137055 0.137055 -0.000057
v 0.137055 0.137055 -0.000057
v 0.137055 -0.137055 -0.000057
v -0.137055 -0.137055 -0.000057
v 0.000000 0.000000 0.207164
v -0.156437 0.156437 -0.000057
v 0.156437 0.156437 -0.000057
v 0.156437 -0.156437 -0.000057
v -0.156437 -0.156437 -0.000057
v -0.132895 0.132895 0.025728
v 0.132895 0.132895 0.025728
v 0.132895 -0.132895 0.025728
v -0.132895 -0.132895 0.025728
vn -0.0000 0.7981 0.6025
vn 0.7981 -0.0000 0.6025
vn -0.0000 -0.9872 -0.1593
vn -0.0000 -0.7981 0.6025
vn -0.7981 -0.0000 0.6025
vn -0.0000 -0.0000 -1.0000
vn 0.9872 -0.0000 -0.1593
vn -0.9872 -0.0000 -0.1593
vn -0.0000 0.9872 -0.1593
vt 0.750000 0.460265
vt 0.960265 0.250000
vt 0.750000 0.039735
vt 0.539735 0.250000
vt 0.250000 0.250000
vt 0.250000 0.490000
vt 0.750000 0.490000
vt 0.490000 0.250000
vt 0.990000 0.250000
vt 0.250000 0.010000
vt 0.750000 0.010000
vt 0.010000 0.250000
vt 0.510000 0.250000
vt 0.750000 0.460265
vt 0.960265 0.250000
vt 0.750000 0.039735
vt 0.539735 0.250000
s 0
usemtl Material.001
f 20/28/9 19/27/9 21/30/9
f 21/30/10 19/27/10 22/32/10
f 15/23/11 16/24/11 25/37/11 24/36/11
f 22/32/12 19/27/12 23/34/12
f 23/34/13 19/27/13 20/28/13
f 16/24/14 15/23/14 20/29/14 21/31/14
f 17/25/14 16/24/14 21/31/14 22/33/14
f 18/26/14 17/25/14 22/33/14 23/35/14
f 15/23/14 18/26/14 23/35/14 20/29/14
f 24/36/14 25/37/14 26/38/14 27/39/14
f 18/26/15 15/23/15 24/36/15 27/39/15
f 16/24/16 17/25/16 26/38/16 25/37/16
f 17/25/17 18/26/17 27/39/17 26/38/17
